# xmcd
#
# Track frame offsets:
#	150
#	21219
#	40182
#	58790
#	77402
#	93787
#	110483
#	124961
#	145624
#	160631
#	181890
#	198433
#	218360
#	230948
#	243646
#	260995
#	277750
#	315626
#	331647
#
# Disc length: 4685
#
# Revision: 1
# Processed by: cddbd v1.5.1PL0 Copyright (c) Steve Scherf et al.
# Submitted via: audiograbber 1.82.02
# Normalized: r0:DSETVAR1
#
DISCID=01124b13
DTITLE=Various Artist - Country And Motown
DYEAR=2003
DGENRE=Country
TTITLE0=Brad Paisley - He Didn't Have To Be
TTITLE1=Brooks And Dunn - Mama Don't Get Dressed Up For Nothing
TTITLE2=Collin Raye - One Boy, One Girl
TTITLE3=Faith Hill - Where Are You Christmas
TTITLE4=Michael Peterson - From Here To Eternity
TTITLE5=Paul Brandt - I Do
TTITLE6=Reba Mcintire - I'm A Survivor
TTITLE7=Sarah Evans - I Couldn't Ask For More
TTITLE8=Steve Tyrell - Give Me The Simple Life
TTITLE9=Tim Mcgraw - More Than A Lover
TTITLE10=Tim Mcgraw - My Next 30 Years
TTITLE11=Joan Osborne - What Becomes Of The Broken Hearted
TTITLE12=Chairmen Of The Board - Give Me Just A Little More Time
TTITLE13=Gladys Knight and The Pips - Gladys Knight and The Pips - I Heard It Through The Grapevine
TTITLE14=Gladys Knight and The Pips - Best Thing That Ever Happened To Me
TTITLE15=Rare Earth - I Just Want To Celebrate
TTITLE16=Stevie Wonder - Do I Do
TTITLE17=The Temptations - Cloud Nine
TTITLE18=Yellow Magic Orchestra - Computer Games (12'' Mix)
EXTD=
EXTT0=
EXTT1=
EXTT2=
EXTT3=
EXTT4=
EXTT5=
EXTT6=
EXTT7=
EXTT8=
EXTT9=
EXTT10=
EXTT11=
EXTT12=
EXTT13=
EXTT14=
EXTT15=
EXTT16=
EXTT17=
EXTT18=
PLAYORDER=
